# xmcd
#
# Track frame offsets: 
#        150
#        8788
#        37209
#        57295
#        77174
#        89200
#        111574
#        135990
#        150518
#        174388
#        200288
#        209664
#        227539
#        233083
#
# Disc length: 3536 seconds
#
# Revision: 0
# Processed by: cddbd v1.5.2PL0 Copyright (c) Steve Scherf et al.
# Submitted via: ExactAudioCopy v0.95b4
#
DISCID=bb0dce0e
DTITLE=Netsayi - Chimurenga Soul
DYEAR=2007
DGENRE=Soul
TTITLE0=Chimurenga Soul
TTITLE1=Funny
TTITLE2=Tatters
TTITLE3=Like
TTITLE4=Kwazwai
TTITLE5=Lion
TTITLE6=Hondo
TTITLE7=Kuzanga
TTITLE8=Nguwo Yangu (feat. Chirikure Chirikure)
TTITLE9=Beyond the Moon
TTITLE10=Zarura (feat. Chirikure Chirikure)
TTITLE11=Missionary's Prayer
TTITLE12=Bukatiende
TTITLE13=The Refugee Song
EXTD=
EXTT0=
EXTT1=
EXTT2=
EXTT3=
EXTT4=
EXTT5=
EXTT6=
EXTT7=
EXTT8=
EXTT9=
EXTT10=
EXTT11=
EXTT12=
EXTT13=
PLAYORDER=
